<?xml version="1.0" encoding="utf-8"?>
<!-- Generator: Adobe Illustrator 24.1.1, SVG Export Plug-In . SVG Version: 6.00 Build 0)  -->
<svg version="1.1" id="Capa_1" xmlns="http://www.w3.org/2000/svg" xmlns:xlink="http://www.w3.org/1999/xlink" x="0px" y="0px"
	 viewBox="0 0 394 80" style="enable-background:new 0 0 394 80;" xml:space="preserve">
<path d="M358.4,36.8h35.9v6.7H380v34.9h-7.1V43.4h-14.5V36.8z M358.2,36.8v6.7h-28.8v10.7h23.2v6.6h-23.2v11h28.8v6.6h-35.9V36.8h36
	H358.2z"/>
<path d="M322.6,78.3L289,36.8h-8.9v41.6h7.1V45.7l26.3,32.7H322.6z"/>
<path d="M273.6,78.9c-1,0-1.8-0.4-2.5-1s-1.1-1.6-1.1-2.6s0.3-1.8,1-2.5s1.6-1,2.6-1s1.8,0.3,2.5,1c1.2,1.1,1.5,2.9,0.6,4.3
	c-0.6,1.1-1.8,1.7-3,1.8L273.6,78.9z"/>
<g>
	<path d="M4.9,1.2h35.3v46c0,6-0.6,11.2-1.9,15.4c-1.2,4.3-3.1,7.6-5.6,10.1c-2.5,2.5-5.3,4.3-8.6,5.4c-3.3,1.1-7.1,1.7-11.5,1.7
		c-2.1,0-4-0.1-5.9-0.2c-1.9-0.2-3.2-0.3-4.1-0.5l-1.3-0.2v-9.1h11.2c6,0,10.5-1.7,13.6-5.2c3.1-3.5,4.6-9.2,4.6-17.3V10.8H4.9V1.2z
		"/>
	<path d="M56.8,63.3c-1.1-4.2-1.6-9.3-1.6-15.2c0-5.9,0.5-11,1.6-15.2c1.1-4.2,2.7-7.5,4.8-10c2.1-2.5,4.6-4.3,7.4-5.4
		c2.8-1.1,6.2-1.7,10-1.7c3.8,0,7.1,0.6,10,1.7c2.8,1.1,5.3,2.9,7.4,5.4c2.1,2.5,3.7,5.8,4.8,10c1.1,4.2,1.6,9.3,1.6,15.2
		c0,5.9-0.5,11-1.6,15.2c-1.1,4.2-2.7,7.5-4.8,10c-2.1,2.5-4.6,4.3-7.4,5.4c-2.8,1.1-6.2,1.7-10,1.7c-3.8,0-7.1-0.6-10-1.7
		c-2.8-1.1-5.3-2.9-7.4-5.4C59.4,70.8,57.8,67.5,56.8,63.3z M89.7,30.7c-2.5-3.5-6-5.2-10.7-5.2c-4.7,0-8.3,1.7-10.7,5.2
		c-2.5,3.5-3.7,9.3-3.7,17.4c0,8.1,1.2,14,3.7,17.4c2.5,3.5,6,5.2,10.7,5.2c4.7,0,8.3-1.7,10.7-5.2c2.5-3.5,3.7-9.3,3.7-17.4
		C93.4,40,92.1,34.1,89.7,30.7z"/>
	<path d="M142.4,0.7c2.5,0,4.9,0.1,7.2,0.2c2.4,0.2,4.1,0.3,5.2,0.5l1.7,0.2v9.1h-14.1c-6.9,0-12.1,2.6-15.7,7.8
		c-3.6,5.2-5.3,12.4-5.3,21.7c0,5.5,0.4,10.2,1.2,14.1c0.8,3.9,1.9,7,3.4,9.3c1.5,2.3,3.3,3.9,5.3,5c2,1,4.4,1.6,7.1,1.6
		c3.4,0,6-0.5,7.8-1.5c1.8-1,2.7-2.7,2.7-5V42.1h-13.6v-9.6h22.9v31.3c0,5.8-1.7,9.9-5.1,12.4c-3.4,2.5-8.3,3.7-14.8,3.7
		c-4.3,0-8-0.7-11.2-2c-3.2-1.4-6-3.6-8.4-6.6c-2.4-3-4.2-7.1-5.4-12.3c-1.2-5.2-1.8-11.4-1.8-18.7c0-12.4,2.7-22.1,8-29.1
		C124.8,4.2,132.5,0.7,142.4,0.7z"/>
	<path d="M170.6,16.8h9.4V57c0,4.9,1,8.4,3,10.6c2,2.1,4.9,3.2,8.8,3.2c2.2,0,4.2-0.2,6.2-0.7c2-0.4,3.4-0.9,4.3-1.3l1.3-0.7V16.8
		h9.4V74c-0.2,0.2-0.5,0.4-1,0.7c-0.4,0.3-1.3,0.8-2.7,1.5c-1.4,0.7-2.9,1.4-4.4,2c-1.5,0.6-3.5,1.1-5.9,1.5
		c-2.4,0.4-4.8,0.7-7.2,0.7c-6.9,0-12.2-1.8-15.8-5.4c-3.6-3.6-5.4-9.6-5.4-18V16.8z"/>
	<path d="M228.8,1.2h38.8v9.6h-14.7v59h14.7v9.6h-38.8v-9.6h14.7v-59h-14.7V1.2z"/>
</g>
</svg>
